<svg width="16" height="16" viewBox="0 0 16 16" fill="none" xmlns="http://www.w3.org/2000/svg">
<path d="M5.99992 7.33333L7.33325 8.66667L10.3333 5.66667M7.99535 3.42388C6.66245 1.8656 4.43975 1.44643 2.76972 2.87334C1.09968 4.30026 0.864564 6.68598 2.17605 8.3736C3.16665 9.64829 5.98078 12.2073 7.29859 13.3833C7.54084 13.5994 7.66197 13.7075 7.8038 13.7501C7.92694 13.787 8.06377 13.787 8.1869 13.7501C8.32874 13.7075 8.44986 13.5994 8.69211 13.3833C10.0099 12.2073 12.8241 9.64829 13.8147 8.3736C15.1261 6.68598 14.9197 4.28525 13.221 2.87334C11.5222 1.46144 9.32825 1.8656 7.99535 3.42388Z" stroke="white" stroke-width="1.2" stroke-linecap="round" stroke-linejoin="round"/>
</svg>
