<svg width="30" height="30" viewBox="0 0 30 30" fill="none" xmlns="http://www.w3.org/2000/svg">
<path d="M26.2 15C26.2 21.1856 21.1856 26.2 15 26.2M26.2 15C26.2 8.81441 21.1856 3.8 15 3.8M26.2 15H29M15 26.2C8.81441 26.2 3.8 21.1856 3.8 15M15 26.2V29M3.8 15C3.8 8.81441 8.81441 3.8 15 3.8M3.8 15H1M15 3.8V1M19.2 15C19.2 17.3196 17.3196 19.2 15 19.2C12.6804 19.2 10.8 17.3196 10.8 15C10.8 12.6804 12.6804 10.8 15 10.8C17.3196 10.8 19.2 12.6804 19.2 15Z" stroke="#8C8C8C" stroke-width="2" stroke-linecap="round" stroke-linejoin="round"/>
</svg>
