<svg width="28" height="28" viewBox="0 0 28 28" fill="none" xmlns="http://www.w3.org/2000/svg">
<path d="M19.8333 2.3335V15.1668M25.6666 11.4335V6.06683C25.6666 4.76004 25.6666 4.10665 25.4123 3.60752C25.1886 3.16847 24.8317 2.81152 24.3926 2.58781C23.8935 2.3335 23.2401 2.3335 21.9333 2.3335H9.47099C7.76593 2.3335 6.9134 2.3335 6.22482 2.6455C5.61794 2.92049 5.10216 3.36299 4.73809 3.921C4.32501 4.55412 4.19538 5.39674 3.93611 7.08197L3.32586 11.0486C2.9839 13.2714 2.81292 14.3827 3.14275 15.2475C3.43225 16.0065 3.97674 16.6411 4.68289 17.0427C5.48743 17.5002 6.61187 17.5002 8.86074 17.5002H9.79998C10.4534 17.5002 10.7801 17.5002 11.0296 17.6273C11.2492 17.7392 11.4276 17.9177 11.5395 18.1372C11.6666 18.3867 11.6666 18.7134 11.6666 19.3668V22.79C11.6666 24.3788 12.9546 25.6668 14.5435 25.6668C14.9224 25.6668 15.2658 25.4437 15.4197 25.0974L19.3406 16.2754C19.519 15.8741 19.6081 15.6735 19.7491 15.5264C19.8737 15.3963 20.0267 15.2969 20.1961 15.2359C20.3878 15.1668 20.6073 15.1668 21.0464 15.1668H21.9333C23.2401 15.1668 23.8935 15.1668 24.3926 14.9125C24.8317 14.6888 25.1886 14.3319 25.4123 13.8928C25.6666 13.3937 25.6666 12.7403 25.6666 11.4335Z" stroke="white" stroke-width="2.4" stroke-linecap="round" stroke-linejoin="round"/>
</svg>
