<svg width="28" height="28" viewBox="0 0 28 28" fill="none" xmlns="http://www.w3.org/2000/svg">
<path d="M18.9495 6.71724C21.6831 9.45092 21.6831 13.8831 18.9495 16.6167M9.04994 16.6167C6.31627 13.8831 6.31627 9.45092 9.04994 6.71724M5.74985 19.9166C1.19373 15.3605 1.19373 7.9736 5.74985 3.41748M22.2495 3.41748C26.8056 7.9736 26.8056 15.3605 22.2495 19.9166M13.9997 14.0004C15.2884 14.0004 16.333 12.9557 16.333 11.667C16.333 10.3784 15.2884 9.3337 13.9997 9.3337C12.711 9.3337 11.6664 10.3784 11.6664 11.667C11.6664 12.9557 12.711 14.0004 13.9997 14.0004ZM13.9997 14.0004V24.5004" stroke="white" stroke-width="2.4" stroke-linecap="round" stroke-linejoin="round"/>
</svg>
