<svg width="28" height="28" viewBox="0 0 28 28" fill="none" xmlns="http://www.w3.org/2000/svg">
<path d="M8.16659 25.6668V12.8335M2.33325 15.1668V23.3335C2.33325 24.6222 3.37792 25.6668 4.66659 25.6668H20.3305C22.058 25.6668 23.5272 24.4064 23.7898 22.699L25.0462 14.5324C25.3724 12.4122 23.732 10.5002 21.5869 10.5002H17.4999C16.8556 10.5002 16.3333 9.97783 16.3333 9.3335V5.21031C16.3333 3.62149 15.0453 2.3335 13.4564 2.3335C13.0775 2.3335 12.7341 2.55667 12.5802 2.90297L8.47451 12.1407C8.28726 12.562 7.86945 12.8335 7.4084 12.8335H4.66659C3.37792 12.8335 2.33325 13.8782 2.33325 15.1668Z" stroke="white" stroke-width="2.4" stroke-linecap="round" stroke-linejoin="round"/>
</svg>
