<svg width="28" height="28" viewBox="0 0 28 28" fill="none" xmlns="http://www.w3.org/2000/svg">
<path d="M13.9995 14.0002H14.0112M18.1243 18.125C12.657 23.5923 6.37808 26.1777 4.10002 23.8997C1.82196 21.6216 4.40738 15.3427 9.87472 9.87538C15.3421 4.40804 21.621 1.82261 23.899 4.10067C26.1771 6.37873 23.5916 12.6576 18.1243 18.125ZM18.1243 9.87517C23.5916 15.3425 26.177 21.6214 23.899 23.8994C21.6209 26.1775 15.342 23.5921 9.87468 18.1247C4.40734 12.6574 1.82191 6.37852 4.09997 4.10046C6.37803 1.8224 12.6569 4.40783 18.1243 9.87517ZM14.5828 14.0002C14.5828 14.3223 14.3217 14.5835 13.9995 14.5835C13.6773 14.5835 13.4162 14.3223 13.4162 14.0002C13.4162 13.678 13.6773 13.4168 13.9995 13.4168C14.3217 13.4168 14.5828 13.678 14.5828 14.0002Z" stroke="white" stroke-width="2.4" stroke-linecap="round" stroke-linejoin="round"/>
</svg>
