<svg width="16" height="16" viewBox="0 0 16 16" fill="none" xmlns="http://www.w3.org/2000/svg">
<path d="M11 1.66663L14.3333 4.99996M14.3333 1.66663L11 4.99996M8.33333 1.99996H5.2C4.07989 1.99996 3.51984 1.99996 3.09202 2.21795C2.71569 2.40969 2.40973 2.71565 2.21799 3.09198C2 3.5198 2 4.07985 2 5.19996V10.8C2 11.9201 2 12.4801 2.21799 12.9079C2.40973 13.2843 2.71569 13.5902 3.09202 13.782C3.51984 14 4.07989 14 5.2 14H11.3333C11.9533 14 12.2633 14 12.5176 13.9318C13.2078 13.7469 13.7469 13.2078 13.9319 12.5176C14 12.2633 14 11.9533 14 11.3333M7 5.66663C7 6.40301 6.40305 6.99996 5.66667 6.99996C4.93029 6.99996 4.33333 6.40301 4.33333 5.66663C4.33333 4.93025 4.93029 4.33329 5.66667 4.33329C6.40305 4.33329 7 4.93025 7 5.66663ZM9.99336 7.94539L4.3541 13.072C4.03691 13.3603 3.87831 13.5045 3.86429 13.6294C3.85213 13.7377 3.89364 13.8451 3.97546 13.917C4.06985 14 4.28419 14 4.71286 14H10.9707C11.9301 14 12.4098 14 12.7866 13.8388C13.2596 13.6364 13.6365 13.2596 13.8388 12.7866C14 12.4098 14 11.9301 14 10.9706C14 10.6478 14 10.4864 13.9647 10.3361C13.9204 10.1472 13.8353 9.9702 13.7155 9.81756C13.6202 9.69609 13.4941 9.59526 13.242 9.3936L11.3772 7.90173C11.1249 7.6999 10.9988 7.59898 10.8599 7.56337C10.7374 7.53197 10.6086 7.53604 10.4884 7.57509C10.352 7.61939 10.2324 7.72806 9.99336 7.94539Z" stroke="black" stroke-width="1.2" stroke-linecap="round" stroke-linejoin="round"/>
</svg>
