<svg width="24" height="24" viewBox="0 0 24 24" fill="none" xmlns="http://www.w3.org/2000/svg">
<circle cx="12" cy="12" r="12" fill="#D9D9D9"/>
<path d="M16.9999 15.0109C16.9999 16.8396 15.7145 17.6846 13.7256 17.9237C13.2433 17.974 12.6996 17.9996 12.1688 17.9996C11.4272 17.9996 10.6855 17.9493 10.0433 17.8858C9.11668 17.7852 8.16499 17.016 8.07855 15.6911C7.95494 13.4972 7.99125 11.5301 8.09065 9.3107C8.16499 7.97341 9.11581 7.21743 10.0433 7.11599C10.6734 7.05336 11.4142 7.00308 12.1438 7.00308C12.6996 6.99073 13.2433 7.01543 13.7256 7.07894C15.7154 7.2933 16.827 7.89843 16.827 9.96699C16.827 11.1526 16.2954 12.287 14.5035 12.287C14.3056 12.287 14.3056 12.6654 14.5035 12.6654C14.8493 12.6654 15.3187 12.6398 15.7396 12.4387C16.6049 12.7166 16.9999 13.5607 16.9999 15.0109Z" fill="white"/>
</svg>
